<?xml version="1.0" encoding="UTF-8"?>
<svg id="Layer_2" data-name="Layer 2" xmlns="http://www.w3.org/2000/svg" viewBox="0 0 760.46 160.88">
  <defs>
    <style>
      .cls-1, .cls-2 {
        fill: #fff;
      }

      .cls-2 {
        font-family: Ubuntu-Bold, Ubuntu;
        font-size: 90px;
        font-weight: 700;
      }

      .cls-3 {
        letter-spacing: -.04em;
      }

      .cls-4 {
        letter-spacing: 0em;
      }

      .cls-5 {
        fill: #f7931e;
      }
    </style>
  </defs>
  <g id="Layer_3" data-name="Layer 3">
    <g>
      <g>
        <path class="cls-1" d="M86.72,143.14v17.73l87.6-30.13s1.48-.31,1.51-3.12,0-9.37,0-9.37c0,0-.86-9.88-21.68-6.52,0,0,20.12,4.65,6.38,8.79-13.74,4.14-73.8,22.61-73.8,22.61Z"/>
        <path class="cls-1" d="M175.83,89.6s-.86-9.88-21.68-6.52c0,0,20.12,4.65,6.38,8.79-13.74,4.14-73.8,22.61-73.8,22.61L.37,91.86v12.94l86.35,27.42,12.53-4.31,43.72-11.15-9.28-.5.34-.31,40.29-13.86s1.48-.31,1.51-3.12c.02-2.8,0-9.37,0-9.37Z"/>
        <path class="cls-1" d="M175.83,62.17s-.86-9.88-21.68-6.52c0,0,20.12,4.65,6.38,8.79-13.74,4.14-73.8,22.61-73.8,22.61L.37,64.43v12.94l86.35,27.42,12.53-4.31,43.72-11.15-9.28-.5.34-.31,40.29-13.86s1.48-.31,1.51-3.12c.02-2.8,0-9.37,0-9.37Z"/>
        <path class="cls-1" d="M37.76,62.28s60.14-21.83,76.78-35.3l-24.42-7.53s-6.94-1.59-11.54,0C73.97,21.04,0,42.71,0,42.71v8.36l37.76,11.21Z"/>
        <path class="cls-5" d="M75.93,74.15s3.98,2.13,15.81-1.17c11.83-3.3,40.85-11.17,40.06-11.37s-16.81-1.67-16.81-1.67c0,0-4.18-1.38.92-2.84s48.01-13.05,73.44-36.8c0,0,2.47-2.09-3.72-1.05,0,0-1.46-1.09,0-1.92s12.88-11.25,12.21-17.31c0,0-25.47,16.6-44.66,23.42S171.11,6.02,170.19,0c0,0-24.63,19.45-62.86,35.63,0,0-2.94,1.72-10.27,1.78l-59.3,24.87,38.17,11.87Z"/>
      </g>
      <text class="cls-2" transform="translate(204.72 123.25)"><tspan x="0" y="0">DevMa</tspan><tspan class="cls-3" x="298.89" y="0">k</tspan><tspan class="cls-4" x="347.76" y="0">er3D</tspan></text>
    </g>
  </g>
</svg>